<?xml version="1.0" encoding="UTF-8" standalone="no"?>
<!-- Created with Inkscape (http://www.inkscape.org/) -->

<svg
   width="176.41692mm"
   height="116.02806mm"
   viewBox="0 0 176.41692 116.02806"
   version="1.1"
   id="svg1"
   xml:space="preserve"
   xmlns="http://www.w3.org/2000/svg"
   xmlns:svg="http://www.w3.org/2000/svg"><defs
     id="defs1"><marker
       style="overflow:visible"
       id="marker31"
       refX="0"
       refY="0"
       orient="auto-start-reverse"
       markerWidth="1"
       markerHeight="1"
       viewBox="0 0 1 1"
       preserveAspectRatio="xMidYMid"><path
         style="fill:context-stroke;fill-rule:evenodd;stroke:none"
         d="m 1,0 -3,3 h -2 l 3,-3 -3,-3 h 2 z"
         id="path31" /></marker><marker
       style="overflow:visible"
       id="marker30"
       refX="0"
       refY="0"
       orient="auto-start-reverse"
       markerWidth="1"
       markerHeight="1"
       viewBox="0 0 1 1"
       preserveAspectRatio="xMidYMid"><path
         style="fill:context-stroke;fill-rule:evenodd;stroke:none"
         d="m 1,0 -3,3 h -2 l 3,-3 -3,-3 h 2 z"
         id="path30" /></marker><marker
       style="overflow:visible"
       id="marker26"
       refX="0"
       refY="0"
       orient="auto-start-reverse"
       markerWidth="1"
       markerHeight="1"
       viewBox="0 0 1 1"
       preserveAspectRatio="xMidYMid"><path
         style="fill:context-stroke;fill-rule:evenodd;stroke:none"
         d="m 1,0 -3,3 h -2 l 3,-3 -3,-3 h 2 z"
         id="path26" /></marker><marker
       style="overflow:visible"
       id="marker22"
       refX="0"
       refY="0"
       orient="auto-start-reverse"
       markerWidth="1"
       markerHeight="1"
       viewBox="0 0 1 1"
       preserveAspectRatio="xMidYMid"><path
         transform="scale(0.5)"
         style="fill:context-stroke;fill-rule:evenodd;stroke:context-stroke;stroke-width:1pt"
         d="m 6,0 c -3,1 -7,3 -9,5 0,0 0,-4 2,-5 -2,-1 -2,-5 -2,-5 2,2 6,4 9,5 z"
         id="path22" /></marker><marker
       style="overflow:visible"
       id="marker8"
       refX="0"
       refY="0"
       orient="auto-start-reverse"
       markerWidth="1"
       markerHeight="1"
       viewBox="0 0 1 1"
       preserveAspectRatio="xMidYMid"><path
         transform="scale(0.5)"
         style="fill:context-stroke;fill-rule:evenodd;stroke:context-stroke;stroke-width:1pt"
         d="m 6,0 c -3,1 -7,3 -9,5 0,0 0,-4 2,-5 -2,-1 -2,-5 -2,-5 2,2 6,4 9,5 z"
         id="path8" /></marker><marker
       style="overflow:visible"
       id="DartArrow"
       refX="0"
       refY="0"
       orient="auto-start-reverse"
       markerWidth="1"
       markerHeight="1"
       viewBox="0 0 1 1"
       preserveAspectRatio="xMidYMid"><path
         style="fill:context-stroke;fill-rule:evenodd;stroke:none"
         d="M 0,0 5,-5 -12.5,0 5,5 Z"
         transform="scale(-0.5)"
         id="path6" /></marker><marker
       style="overflow:visible"
       id="ArrowWideHeavy"
       refX="0"
       refY="0"
       orient="auto-start-reverse"
       markerWidth="1"
       markerHeight="1"
       viewBox="0 0 1 1"
       preserveAspectRatio="xMidYMid"><path
         style="fill:context-stroke;fill-rule:evenodd;stroke:none"
         d="m 1,0 -3,3 h -2 l 3,-3 -3,-3 h 2 z"
         id="path48" /></marker></defs><g
     id="g259"
     transform="translate(-3.0269157,-50.784488)"><g
       id="g244"><path
         d="m 120.34874,91.047009 c 1.54844,-0.506781 4.82165,-0.896317 4.11367,-3.266162 -0.59,-0.791447 -1.11842,-1.217178 -1.90828,-1.641052 -6.12729,-3.675251 -13.93051,-1.941072 -19.58054,1.851423 -9.520072,6.364096 -18.441407,14.389852 -23.603081,24.770912 4.863195,-5.21839 10.322676,-9.93088 16.435902,-13.634232 7.406489,-4.669004 16.075149,-6.436442 24.542329,-8.080889 z M 70.814079,107.0602 c -4.933161,4.68374 -10.745593,8.54632 -14.577369,14.27476 -4.215584,4.18078 -10.522255,6.58692 -12.744007,12.47859 -1.188656,2.23387 -4.87742,9.1587 0.733325,5.67428 4.010406,-3.25907 8.825065,-5.32148 12.771906,-8.68672 4.098694,-4.00133 9.131076,-6.50912 14.546058,-8.15961 20.464991,-9.18873 42.377388,-16.13555 60.481468,-29.805022 3.94922,-3.227494 8.41385,-6.457018 10.03518,-11.50461 3.21247,-3.107439 6.47169,-5.810117 9.7257,-8.76352 1.4276,-5.299733 -6.55501,-1.288866 -8.91031,-3.860896 -4.62149,-0.539514 -8.52692,2.465771 -13.13254,2.446872 -7.21823,1.811118 -13.81219,5.626086 -20.47471,8.88094 -14.182915,6.949349 -26.500113,16.856629 -38.454498,27.024956 z"
         stroke="#000000"
         stroke-width="5.69144"
         fill="#808080"
         id="path1-0"
         style="stroke-width:1.42371;stroke-dasharray:none" /><g
         id="g206"
         transform="matrix(6.7720104e-4,0.18927222,-0.18927222,6.7720104e-4,89.941128,86.180553)"
         style="stroke-width:3.5431;stroke-dasharray:none"><circle
           style="fill:none;fill-opacity:1;stroke:#000000;stroke-width:3.5431;stroke-linecap:round;stroke-dasharray:none;stroke-dashoffset:0;stroke-opacity:1"
           id="path168"
           cx="63.762177"
           cy="-35.497307"
           r="16.405422" /><path
           style="fill:none;fill-opacity:1;stroke:#000000;stroke-width:3.5431;stroke-linecap:round;stroke-dasharray:none;stroke-dashoffset:0;stroke-opacity:1"
           d="M 47.356754,-35.497307 H 80.167598"
           id="path169" /><path
           style="fill:none;fill-opacity:1;stroke:#000000;stroke-width:3.5431;stroke-linecap:round;stroke-dasharray:none;stroke-dashoffset:0;stroke-opacity:1"
           d="m 63.762175,-51.902727 v 32.810843"
           id="path170" /><path
           style="fill:#000000;fill-opacity:1;stroke:#000000;stroke-width:13.3912;stroke-linecap:round;stroke-dasharray:none;stroke-dashoffset:0;stroke-opacity:1"
           d="m 236.18147,-74.316867 c -7.15506,-0.590819 -14.46633,-2.563239 -20.97022,-5.65731 -2.81516,-1.339244 -4.5604,-2.337529 -7.52916,-4.306712 -12.38169,-8.21279 -21.30552,-20.875321 -24.93764,-35.385451 -0.87423,-3.49251 -1.69032,-9.03188 -1.69032,-11.47343 v -1.0433 h 29.01969 29.01968 v 29.01968 29.019689 l -0.67765,-0.02231 c -0.37271,-0.01228 -1.37818,-0.08016 -2.23438,-0.150854 z"
           id="path205"
           transform="scale(0.26458333)" /><path
           style="fill:#000000;fill-opacity:1;stroke:#000000;stroke-width:13.3912;stroke-linecap:round;stroke-dasharray:none;stroke-dashoffset:0;stroke-opacity:1"
           d="m 242.92028,-165.19993 v -29.03065 l 1.31545,0.0994 c 8.98356,0.6785 16.16306,2.59692 23.55856,6.29504 6.01151,3.00606 10.73661,6.41985 15.55482,11.23806 8.84936,8.84936 14.47653,19.56103 16.7153,31.8186 0.41386,2.26594 0.89524,6.46785 0.89524,7.81445 v 0.79579 h -29.01969 -29.01968 z"
           id="path206"
           transform="scale(0.26458333)" /></g><g
         id="g243"><path
           style="opacity:0.499065;fill:none;fill-opacity:1;stroke:#000000;stroke-width:0.670615;stroke-linecap:round;stroke-dasharray:0.670615, 2.01184;stroke-dashoffset:0;stroke-opacity:1"
           d="M 97.191917,97.980346 169.5243,62.306874"
           id="path209" /><g
           id="g21"
           transform="translate(-0.94209132,-4.4630636)"><path
             id="path36"
             d="M 97.745865,102.78425 178.76304,94.646529"
             style="fill:none;fill-opacity:1;stroke:#000000;stroke-width:0.670615;stroke-linecap:round;stroke-linejoin:round;stroke-miterlimit:4;stroke-dasharray:none;stroke-opacity:1;marker-end:url(#ArrowWideHeavy)" /><g
             transform="translate(179.30184,90.190583)"
             id="g18"><g
   transform="matrix(0.352778,0,0,0.352778,-1.22731,-2.30893)"
   id="g17">
        <g
   transform="translate(0,9.562)"
   id="g16">
            <g
   class="typst-text"
   transform="scale(1,-1)"
   id="g15">
                <g
   id="g14"><path
   d="m 5.1660004,5.474 c 0,-0.112 0.1259999,-0.2939997 0.3499999,-0.574 C 5.7400002,4.6200004 5.852,4.2980003 5.852,3.934 5.852,3.528 5.656,2.842 5.25,1.876 4.9560003,1.204 4.284,0.252 3.4580002,0.252 2.8140001,0.252 2.492,0.63 2.492,1.4000001 c 0,0.546 0.2660001,1.5120001 0.7980002,2.8980002 0.112,0.2939997 0.168,0.5319997 0.168,0.6999997 0,0.7 -0.4760002,1.19 -1.1760002,1.19 C 1.666,6.188 1.176,5.8380003 0.82600003,5.138 0.546,4.564 0.40600002,4.2000003 0.40600002,4.018 c 0,-0.1259998 0.07,-0.196 0.22399998,-0.196 0.18200004,0 0.21000003,0.084 0.266,0.28 0.322,1.12 0.77,1.68 1.344,1.68 0.1820002,0 0.28,-0.126 0.28,-0.3919997 C 2.52,5.1660004 2.45,4.8580003 2.296,4.452 1.778,3.066 1.5120001,2.128 1.5120001,1.61 1.5120001,0.896 1.75,0.40600002 2.226,0.14 2.604,-0.056 2.996,-0.154 3.4020002,-0.154 4.6480002,-0.154 5.5160003,1.19 5.88,2.2680001 6.328,3.584 6.552,4.55 6.552,5.1660004 6.552,5.852 6.328,6.188 5.894,6.188 5.544,6.188 5.1660004,5.8240004 5.1660004,5.474 Z"
   id="path13" />
        </g></g>
        </g>
    </g>
    </g></g><path
           style="opacity:0.499065;fill:none;fill-opacity:1;stroke:#000000;stroke-width:0.670612;stroke-linecap:round;stroke-dasharray:0.670612, 2.01184;stroke-dashoffset:0;stroke-opacity:1"
           d="M 96.803774,98.321186 H 177.24046"
           id="path224" /><g
           id="g242"><path
             style="fill:none;stroke:#000000;stroke-width:0.671;stroke-linecap:round;stroke-dasharray:none;marker-start:url(#marker26)"
             id="path23"
             d="m 142.58866,93.741668 a 46.013355,46.013355 0 0 1 0.22841,4.514124" /><g
             transform="translate(146.99716,96.193135)"
             id="g36"><g
   transform="matrix(0.352778,0,0,0.352778,-1.38536,-2.8127)"
   id="g35">
        <g
   transform="translate(0,9.562)"
   id="g34">
            <g
   class="typst-text"
   transform="scale(1,-1)"
   id="g33">
                <g
   id="g32"><path
   d="M 7.3360004,5.2920003 C 7.518,5.642 7.602,5.8240004 7.602,5.8380003 7.602,5.964 7.532,6.0340004 7.3780003,6.0340004 7.28,6.0340004 7.21,5.992 7.168,5.908 6.678,4.998 6.104,3.71 5.432,2.0440001 5.3760004,2.9680002 5.1940002,3.8360002 4.886,4.6340003 4.48,5.67 3.8500001,6.188 2.996,6.188 2.114,6.188 1.3440001,5.6000004 0.952,5.0540004 0.49,4.396 0.252,3.9060001 0.252,3.598 c 0,-0.1259999 0.11200002,-0.1959998 0.35,-0.1959998 l 0.07,0.098 C 0.91,4.228 1.316,4.69 1.8900001,4.886 2.282,5.012 2.5900002,5.0820003 2.8140001,5.0820003 4.27,5.0820003 4.998,3.934 4.998,1.6240001 4.998,1.0780001 4.9420004,0.63 4.83,0.28 4.354,-1.274 4.116,-2.2680001 4.116,-2.7020001 4.116,-2.9120002 4.2000003,-3.01 4.354,-3.01 c 0.1680003,0 0.336,0.294 0.4900003,0.868 C 5.0820003,-1.246 5.25,-0.448 5.348,0.252 5.39,0.462 5.418,0.644 5.46,0.77000004 5.964,2.338 6.5940003,3.8500001 7.3360004,5.2920003 Z"
   id="path32" />
        </g></g>
        </g>
    </g>
    </g></g><g
           id="g240"><path
             style="fill:none;stroke:#000000;stroke-width:0.670999;stroke-linecap:round;marker-start:url(#marker30)"
             id="circle24"
             d="m 151.58134,71.312848 a 61.073994,61.073994 0 0 1 6.29637,27.087567" /><g
             transform="translate(158.93181,80.77536)"
             id="g41"><g
   transform="matrix(0.352778,0,0,0.352778,-1.22731,-1.65947)"
   id="g40">
        <g
   transform="translate(0,9.562)"
   id="g39">
            <g
   class="typst-text"
   transform="scale(1,-1)"
   id="g38">
                <g
   id="g37"><path
   d="m 2.296,-0.154 c 0.63,0 1.288,0.378 1.932,1.134 1.12,1.302 2.1420004,3.71 2.1420004,5.992 0,0.574 -0.098,1.176001 -0.2940004,1.778 C 5.8240004,9.492001 5.348,9.87 4.662,9.87 4.032,9.87 3.4020002,9.492001 2.7440002,8.736 1.6240001,7.4480004 0.588,5.04 0.588,2.7440002 0.588,1.316 1.0500001,-0.154 2.296,-0.154 Z M 4.6480002,9.450001 C 5.11,9.450001 5.348,8.918 5.348,7.84 5.348,7.2380004 5.208,6.328 4.928,5.138 H 2.17 C 2.52,6.44 2.8560002,7.406 3.206,8.036 3.7240002,8.974 4.214,9.450001 4.6480002,9.450001 Z M 2.03,4.578 H 4.774 C 4.5080004,3.444 4.1860003,2.5340002 3.8360002,1.848 3.2900002,0.79800004 2.786,0.266 2.296,0.266 1.8340001,0.266 1.61,0.81200004 1.61,1.8900001 1.61,2.5900002 1.75,3.486 2.03,4.578 Z"
   id="path37" />
        </g></g>
        </g>
    </g>
    </g></g><g
           id="g241"><path
             style="fill:none;stroke:#000000;stroke-width:0.670999;stroke-linecap:round;marker-start:url(#marker31)"
             id="circle23"
             d="m 145.30898,74.245214 a 54.151714,54.151714 0 0 1 5.36115,18.524026" /><g
             transform="translate(152.10307,83.675234)"
             id="g46"><g
   transform="matrix(0.352778,0,0,0.352778,-1.58785,-2.30893)"
   id="g45">
        <g
   transform="translate(0,9.562)"
   id="g44">
            <g
   class="typst-text"
   transform="scale(1,-1)"
   id="g43">
                <g
   id="g42"><path
   d="M 4.34,6.188 C 3.374,6.188 2.506,5.768 1.7360001,4.9420004 0.966,4.116 0.574,3.206 0.574,2.226 c 0,-1.37199997 0.924,-2.38 2.2960001,-2.38 0.9660001,0 1.9179999,0.378 2.8700001,1.12 0.2100001,-0.742 0.6440001,-1.12 1.2880002,-1.12 C 7.532,-0.154 8.246,0.37800002 8.246,0.882 8.246,1.008 8.176001,1.064 8.022,1.064 7.9240003,1.064 7.84,1.008 7.7980003,0.896 7.6860003,0.602 7.392,0.252 7.07,0.252 c -0.2379997,0 -0.3639997,0.44800005 -0.3639997,1.358 0,0.1960001 0.042,0.35 0.126,0.448 C 7.21,2.52 7.546,3.052 7.8120003,3.64 8.162001,4.396 8.372001,4.9560003 8.428,5.32 V 5.376 C 8.386001,5.474 8.302,5.5160003 8.204,5.5160003 8.134,5.5020003 8.05,5.3900003 7.952,5.1940002 7.6580005,4.1860003 7.2520003,3.318 6.7060003,2.604 V 3.3040001 C 6.7060003,4.928 5.894,6.188 4.34,6.188 Z M 5.642,2.954 C 5.642,2.128 5.656,1.6240001 5.67,1.442 4.76,0.644 3.8360002,0.252 2.898,0.252 2.1000001,0.252 1.7080001,0.74200004 1.7080001,1.7080001 1.7080001,2.52 2.17,4.032 2.492,4.5360003 3.0240002,5.362 3.64,5.782 4.326,5.782 4.76,5.782 5.0540004,5.6140003 5.236,5.2780004 5.334,5.11 5.4040003,4.9420004 5.474,4.788 5.586,4.466 5.642,3.6120002 5.642,2.954 Z"
   id="path42" />
        </g></g>
        </g>
    </g>
    </g></g></g><g
         id="g55"><path
           id="path40"
           d="m 96.806374,99.047806 -0.05242,28.212254"
           style="fill:none;stroke:#040000;stroke-width:0.670616;stroke-linecap:round;stroke-linejoin:round;stroke-miterlimit:4;stroke-dasharray:none;stroke-opacity:1;marker-end:url(#DartArrow)" /><g
           transform="translate(97.099008,134.09563)"
           id="g54"><g
   transform="matrix(0.352778,0,0,0.352778,-3.4103,-2.788)"
   id="g53">
        <g
   transform="translate(0,9.562)"
   id="g49">
            <g
   class="typst-text"
   transform="scale(1,-1)"
   id="g48">
                <g
   id="g47"><path
   d="M 9.198,6.188 C 8.344,6.188 7.602,5.768 6.972,4.9420004 6.846,5.768 6.314,6.188 5.362,6.188 4.5360003,6.188 3.822,5.8240004 3.2340002,5.0820003 3.122,5.698 2.632,6.188 1.9180001,6.188 1.3440001,6.188 0.924,5.7260003 0.63,4.816 0.476,4.368 0.40600002,4.102 0.40600002,4.018 c 0,-0.1259998 0.07,-0.196 0.22399998,-0.196 0.07,0 0.11200004,0.014 0.15400004,0.042 C 0.85400003,3.99 0.896,4.0880003 0.924,4.1860003 1.176,5.25 1.498,5.782 1.876,5.782 2.128,5.782 2.2540002,5.586 2.2540002,5.1940002 2.2540002,5.012 2.184,4.6340003 2.03,4.06 L 1.232,0.882 C 1.176,0.71400005 1.1060001,0.35000002 1.1060001,0.266 c 0,-0.28 0.1539999,-0.42 0.4479999,-0.42 0.2800001,0 0.476,0.14 0.574,0.42 0.014,0.07 0.112,0.42000005 0.266,1.022 L 2.6880002,2.5340002 3.108,4.13 c 0.154,0.322 0.392,0.644 0.7,0.98 0.406,0.448 0.91,0.672 1.512,0.672 0.462,0 0.686,-0.308 0.686,-0.91 0,-0.182 -0.07,-0.5599997 -0.21,-1.1339998 L 5.418,2.142 C 5.32,1.7360001 5.096,0.896 4.984,0.448 4.97,0.35 4.956,0.294 4.956,0.266 c 0,-0.28 0.1539997,-0.42 0.4619997,-0.42 0.154,0 0.266,0.042 0.364,0.14 0.21,0.21000001 0.224,0.308 0.308,0.68600005 L 6.9160004,3.99 C 6.958,4.172 7.1540003,4.494 7.4900002,4.9420004 7.9100003,5.5020003 8.47,5.782 9.156,5.782 9.618,5.782 9.842,5.474 9.842,4.872 9.842,4.326 9.562,3.3040001 8.988,1.8060001 8.862,1.4840001 8.806001,1.218 8.806001,1.036 c 0,-0.68599998 0.517999,-1.19 1.189999,-1.19 0.63,0 1.106,0.35000001 1.456001,1.05 0.279999,0.5600001 0.42,0.9380001 0.42,1.12 0,0.126 -0.07,0.1960001 -0.224,0.1960001 C 11.55,2.198 11.452001,2.072 11.382,1.9180001 11.074,0.81200004 10.626,0.252 10.024,0.252 c -0.182,0 -0.28,0.14000002 -0.28,0.406 0,0.21000003 0.084,0.518 0.252,0.952 0.574001,1.498 0.854,2.52 0.854,3.052 0,0.994 -0.658,1.526 -1.652,1.526 z"
   id="path46" />
        </g></g>
        </g>
        <g
   transform="translate(12.292,9.562)"
   id="g52">
            <g
   class="typst-text"
   transform="scale(1,-1)"
   id="g51">
                <g
   id="g50"><path
   d="m 0.21000001,-1.9740001 c 0,-0.6019999 0.63000002,-0.896 1.89000009,-0.896 0.658,0 1.2739999,0.168 1.8199999,0.4900001 0.6160003,0.364 0.994,0.854 1.1480003,1.456 l 1.526,6.146 C 6.622,5.362 6.636,5.446 6.636,5.4880004 6.636,5.768 6.4820004,5.908 6.188,5.908 5.88,5.908 5.684,5.7400002 5.586,5.418 5.2780004,5.9360003 4.8580003,6.188 4.34,6.188 3.444,6.188 2.6460001,5.7400002 1.96,4.8440003 1.33,4.004 1.008,3.122 1.008,2.2120001 1.008,0.994 1.722,-0.042 2.898,-0.042 c 0.546,0 1.0500002,0.23800001 1.5120003,0.7 L 3.99,-0.994 C 3.584,-1.96 2.954,-2.45 2.072,-2.45 c -0.3639999,0 -0.6719999,0.028 -0.924,0.084 0.294,0.1540001 0.434,0.3920001 0.434,0.7140001 C 1.582,-1.302 1.386,-1.12 1.008,-1.12 0.56,-1.12 0.21000001,-1.526 0.21000001,-1.9740001 Z M 4.984,5.4880004 C 5.264,5.1940002 5.4040003,4.914 5.4040003,4.6340003 c 0,-0.014 -0.014,-0.084 -0.042,-0.1820003 L 4.704,1.8060001 C 4.6200004,1.4840001 4.382,1.148 4.004,0.84000003 3.6260002,0.532 3.262,0.37800002 2.94,0.37800002 c -0.56,0 -0.8399999,0.40600002 -0.8399999,1.21800008 0,0.7700001 0.4759999,2.4780003 0.7560001,2.9819999 0.434,0.7980004 0.924,1.19 1.4979998,1.19 0.252,0 0.462,-0.098 0.63,-0.2799996 z"
   id="path50" />
        </g></g>
        </g>
    </g>
    </g></g><g
         id="g71"><g
           id="g5"
           transform="rotate(7.6375175,268.7135,155.09132)"><circle
             style="opacity:1;fill:#000000;fill-opacity:1;stroke:#000000;stroke-width:0.670615;stroke-linecap:round;stroke-linejoin:round;stroke-dasharray:none"
             id="circle166"
             cx="109.26569"
             cy="108.91956"
             r="0.47474822" /><path
             id="path219"
             d="M 109.37313,108.88354 102.56628,81.085954"
             style="fill:#a70000;fill-opacity:1;fill-rule:nonzero;stroke:#040000;stroke-width:0.670615;stroke-linecap:round;stroke-linejoin:round;stroke-miterlimit:4;stroke-dasharray:none;stroke-opacity:1;marker-end:url(#DartArrow)" /><path
             id="path5"
             d="m 109.37313,108.88354 -7.35852,1.84591"
             style="fill:#a70000;fill-opacity:1;fill-rule:nonzero;stroke:#040000;stroke-width:0.670615;stroke-linecap:round;stroke-linejoin:round;stroke-miterlimit:4;stroke-dasharray:none;stroke-opacity:1;marker-end:url(#DartArrow)" /></g><g
           transform="translate(116.2756,55.611935)"
           id="g60"><g
   transform="matrix(0.352778,0,0,0.352778,-1.68416,-1.68642)"
   id="g59">
        <g
   transform="translate(0,9.562)"
   id="g58">
            <g
   class="typst-text"
   transform="scale(1,-1)"
   id="g57">
                <g
   id="g56"><path
   d="M 7.28,9.338 C 7.28,9.492001 7.182,9.562 7,9.562 7,9.562 4.9560003,9.52 4.9560003,9.52 4.9560003,9.52 3.122,9.562 3.122,9.562 2.9120002,9.576 2.8000002,9.464001 2.8000002,9.226 c 0,-0.098 0.042,-0.167999 0.1259998,-0.181999 0.126,-0.014 0.238,-0.028 0.3080002,-0.028 C 3.6680002,9.002 3.9060001,8.974 3.976,8.96 4.046,8.946 4.0880003,8.904 4.0880003,8.834001 c 0,-0.028 -0.014,-0.112001 -0.056,-0.252 L 2.184,1.148 C 2.1000001,0.84000003 1.96,0.658 1.75,0.588 1.666,0.56 1.414,0.546 0.98,0.546 0.68600005,0.546 0.546,0.43400002 0.546,0.21000001 0.546,0.07 0.68600005,0 0.98,0 H 7.3780003 C 7.728,0 7.756,0 7.854,0.266 L 8.946,3.262 C 8.988,3.36 9.002,3.43 9.002,3.4720001 9.002,3.6120002 8.932,3.6820002 8.778,3.6820002 8.6380005,3.6820002 8.568,3.556 8.498,3.3600001 8.232,2.674 7.98,2.1560001 7.7700005,1.8340001 7.2520003,1.0500001 6.3700004,0.546 5.0820003,0.546 H 3.7800002 c -0.154,0 -0.2520002,0 -0.2940002,0.014 -0.098,0 -0.1399998,0.028 -0.1399998,0.07 0,0.028 0.028,0.12600004 0.07,0.308 L 5.2780004,8.4140005 C 5.362,8.736 5.544,8.918 5.81,8.988 5.894,9.002 6.188,9.016001 6.6920004,9.016001 7.084,9.016001 7.28,9.016001 7.28,9.338 Z"
   id="path55" />
        </g></g>
        </g>
    </g>
    </g><g
           transform="translate(102.71167,91.252325)"
           id="g65"><g
   transform="matrix(0.352778,0,0,0.352778,-2.08421,-1.68663)"
   id="g64">
        <g
   transform="translate(0,9.562)"
   id="g63">
            <g
   class="typst-text"
   transform="scale(1,-1)"
   id="g62">
                <g
   id="g61"><path
   d="M 7.938,9.562 H 3.2900002 c -0.322,0 -0.4760001,-0.014 -0.4760001,-0.321999 0,-0.154001 0.1540001,-0.224 0.4619999,-0.224 0.28,0 0.84,0.042 0.84,-0.182 0,-0.028 -0.014,-0.112001 -0.056,-0.252 L 2.2120001,1.148 C 2.142,0.84000003 2.002,0.658 1.792,0.588 1.694,0.56 1.442,0.546 1.008,0.546 0.70000005,0.546 0.56,0.518 0.56,0.224 0.56,0.07 0.71400005,0 1.008,0 H 5.586 C 6.538,0 7.4480004,0.28 8.33,0.85400003 9.828,1.82 11.256001,3.71 11.256001,6.006 11.256001,8.078 9.982,9.562 7.938,9.562 Z M 9.940001,6.524 C 9.940001,4.9420004 9.226,3.0240002 8.498,2.086 7.7000003,1.064 6.65,0.546 5.334,0.546 H 3.7800002 c -0.154,0 -0.2520002,0 -0.3080001,0.014 -0.084,0 -0.1259999,0.028 -0.1259999,0.07 0,0.028 0.028,0.12600004 0.07,0.308 L 5.306,8.54 c 0.126,0.462 0.112,0.476001 0.7,0.476001 H 7.4900002 C 9.058001,9.016001 9.940001,8.092 9.940001,6.524 Z"
   id="path60" />
        </g></g>
        </g>
    </g>
    </g></g><g
         id="g72"><path
           style="opacity:0.5;fill:none;fill-opacity:1;stroke:#000000;stroke-width:0.670615;stroke-linecap:round;stroke-dasharray:0.670615, 2.01184;stroke-dashoffset:0;stroke-opacity:1"
           d="M 77.527145,59.170801 96.552602,98.210856"
           id="path41" /><path
           style="opacity:0.5;fill:none;fill-opacity:1;stroke:#000000;stroke-width:0.670617;stroke-linecap:round;stroke-dasharray:0.670617, 2.01184;stroke-dashoffset:0;stroke-opacity:1"
           d="M 98.693998,51.119796 117.36387,89.419433"
           id="path43" /><path
           style="opacity:0.5;fill:none;fill-opacity:1;stroke:#000000;stroke-width:0.670618;stroke-linecap:round;stroke-dasharray:0.670618, 2.01184;stroke-dashoffset:0;stroke-opacity:1"
           d="M 82.822627,68.966423 102.32019,59.372001"
           id="path49" /><g
           transform="translate(91.392804,60.943962)"
           id="g70"><g
   transform="matrix(0.352778,0,0,0.352778,-1.14829,-2.30893)"
   id="g69">
        <g
   transform="translate(0,9.562)"
   id="g68">
            <g
   class="typst-text"
   transform="scale(1,-1)"
   id="g67">
                <g
   id="g66"><path
   d="m 6.104,5.236 c 0,0.5880004 -0.574,0.952 -1.19,0.952 -0.686,0 -1.26,-0.322 -1.7359998,-0.98 C 3.038,5.754 2.562,6.188 1.904,6.188 1.33,6.188 0.91,5.7400002 0.616,4.83 0.476,4.368 0.40600002,4.102 0.40600002,4.018 c 0,-0.1259998 0.07,-0.196 0.22399998,-0.196 0.07,0 0.11200004,0.014 0.15400004,0.042 C 0.85400003,3.99 0.896,4.0880003 0.91,4.1860003 1.1620001,5.25 1.4840001,5.782 1.8620001,5.782 2.1000001,5.782 2.226,5.586 2.226,5.1940002 2.226,5.012 2.1560001,4.6340003 2.016,4.06 L 1.218,0.882 C 1.176,0.70000005 1.092,0.33600003 1.092,0.266 c 0,-0.28 0.154,-0.42 0.4480001,-0.42 0.2799999,0 0.4619999,0.14 0.56,0.42 L 2.3660002,1.274 C 2.52,1.876 2.618,2.2680001 2.66,2.45 L 3.094,4.242 C 3.122,4.354 3.2340002,4.5360003 3.4160001,4.802 3.7940001,5.334 4.228,5.782 4.914,5.782 5.0820003,5.782 5.222,5.754 5.348,5.684 4.928,5.558 4.718,5.2920003 4.718,4.914 4.718,4.55 4.914,4.368 5.2920003,4.368 5.754,4.368 6.104,4.774 6.104,5.236 Z"
   id="path65" />
        </g></g>
        </g>
    </g>
    </g></g></g><g
       id="g258"><g
         id="g238"
         transform="translate(-11.681397,-50.588041)"
         style="stroke-width:1"><path
           style="opacity:1;fill:none;stroke:#000000;stroke-width:0.671;stroke-linecap:round;stroke-dasharray:none;stroke-opacity:1;marker-start:url(#marker8);marker-end:url(#marker22)"
           d="m 34.834562,183.77446 v 29.67492 H 64.50948"
           id="path7" /><path
           style="opacity:1;fill:none;stroke:#000000;stroke-width:0.671;stroke-linecap:round;stroke-dasharray:none;stroke-opacity:1;marker-start:url(#marker8);marker-end:url(#marker22)"
           d="m 21.61782,186.88026 13.216742,26.56912 26.56913,-13.21674"
           id="path237" /><path
           style="opacity:1;fill:none;stroke:#000000;stroke-width:0.671;stroke-linecap:round;stroke-dasharray:none;stroke-opacity:1;marker-start:url(#marker8);marker-end:url(#marker22)"
           d="m 32.274625,183.88508 2.559937,29.5643 29.564297,-2.55994"
           id="path238" /><g
           transform="translate(70.094678,213.80762)"
           id="g92"
           style="stroke-width:1"><g
   transform="matrix(0.352778,0,0,0.352778,-2.27214,-2.30646)"
   id="g91"
   style="stroke-width:1">
        <g
   transform="translate(0.7,9.674)"
   id="g84"
   style="stroke-width:1">
            <g
   class="typst-text"
   transform="scale(1,-1)"
   id="g83"
   style="stroke-width:1">
                <g
   id="g82"
   style="stroke-width:1"><path
   d="M 5.4040003,7.21 5.642,7.4620004 3.5,9.716001 1.358,7.4620004 1.5960001,7.21 3.5,8.652 Z"
   id="path82"
   style="stroke-width:1" />
        </g></g>
        </g>
        <g
   transform="translate(0,9.562)"
   id="g87"
   style="stroke-width:1">
            <g
   class="typst-text"
   transform="scale(1,-1)"
   id="g86"
   style="stroke-width:1">
                <g
   id="g85"
   style="stroke-width:1"><path
   d="m 1.7360001,1.8060001 c 0,0.3359999 0.07,0.7979999 0.21,1.3720001 H 2.632 c 0.91,0 1.61,0.112 2.1140003,0.3219998 C 5.208,3.696 5.5160003,3.976 5.67,4.326 5.768,4.564 5.81,4.788 5.81,4.9700003 5.81,5.7400002 5.0820003,6.188 4.2980003,6.188 3.752,6.188 3.206,6.0480003 2.66,5.768 1.582,5.208 0.644,3.934 0.644,2.394 0.644,0.966 1.47,-0.154 2.8560002,-0.154 3.598,-0.154 4.256,0.028 4.83,0.37800002 5.306,0.67200005 5.656,0.966 5.88,1.26 5.978,1.386 6.02,1.4840001 6.02,1.526 6.02,1.6800001 5.95,1.764 5.796,1.764 5.726,1.764 5.656,1.708 5.572,1.5960001 5.11,0.98 4.5360003,0.588 3.878,0.42000002 3.444,0.308 3.122,0.252 2.884,0.252 2.086,0.252 1.7360001,1.008 1.7360001,1.8060001 Z M 5.25,4.9700003 C 5.25,4.046 4.354,3.584 2.548,3.584 H 2.058 C 2.3240001,4.5080004 2.716,5.124 3.2480001,5.418 3.6680002,5.656 4.018,5.782 4.2980003,5.782 4.802,5.782 5.25,5.474 5.25,4.9700003 Z"
   id="path84"
   style="stroke-width:1" />
        </g></g>
        </g>
        <g
   transform="translate(6.524,13.02)"
   id="g90"
   style="stroke-width:1">
            <g
   class="typst-text"
   transform="scale(1,-1)"
   id="g89"
   style="stroke-width:1">
                <g
   id="g88"
   style="stroke-width:1"><path
   d="M 5.7134,3.5770001 C 5.7134,4.0768 5.2038,4.3218 4.6746,4.3218 4.2336,4.3218 3.871,4.1062 3.5966,3.675 3.3614001,4.1062 2.9694,4.3218 2.4304001,4.3218 2.0678,4.3218 1.6856,4.165 1.3034,3.8416 0.9016,3.5084 0.6958,3.1654 0.6958,2.8126001 c 0,-0.1078 0.0686,-0.1666 0.196,-0.1666 0.1078,0 0.1764,0.0588 0.2254,0.1861999 C 1.2936,3.3614001 1.7738,3.9788 2.401,3.9788 2.7636,3.9788 2.94,3.7828 2.94,3.381 2.94,3.2536001 2.8714,2.9204001 2.744,2.3814 L 2.4108,1.0682 C 2.3226001,0.6958 1.96,0.245 1.5386,0.245 1.372,0.245 1.225,0.2744 1.1074001,0.343 1.3034,0.4312 1.4798,0.6468 1.4798,0.8722 c 0,0.2352001 -0.1862,0.4018 -0.4214,0.4018 -0.3332,0 -0.588,-0.294 -0.588,-0.6272 0,-0.49 0.51940004,-0.7448 1.0486,-0.7448 0.4508,0 0.8134,0.2156 1.0780001,0.6468 C 2.8322,0.1176 3.2144,-0.098 3.7534,-0.098 c 0.539,0 0.9702,0.2156 1.3034,0.6468 C 5.341,0.931 5.488,1.225 5.488,1.4112 5.488,1.519 5.4292,1.5778 5.3018003,1.5778 5.1940002,1.5778 5.1156,1.5092 5.0764003,1.3818 4.9098,0.8624 4.41,0.245 3.7926002,0.245 3.43,0.245 3.2438,0.441 3.2438,0.833 3.2438,0.98 3.4104002,1.715 3.7436001,3.0184 3.9102,3.6554 4.2042003,3.9788 4.6452003,3.9788 L 4.7334,3.969 C 4.851,3.969 4.9686003,3.9396 5.0764003,3.8906 4.8314,3.7828 4.7138,3.6064 4.7138,3.3516 4.7138,3.1164 4.9,2.9498 5.1352,2.9498 c 0.3332,0 0.5782,0.294 0.5782,0.6272001 z"
   id="path87"
   style="stroke-width:1" />
        </g></g>
        </g>
    </g>
    </g><g
           transform="translate(35.802655,178.99146)"
           id="g103"
           style="stroke-width:1"><g
   transform="matrix(0.352778,0,0,0.352778,-2.16496,-2.30646)"
   id="g102"
   style="stroke-width:1">
        <g
   transform="translate(0.7,9.674)"
   id="g95"
   style="stroke-width:1">
            <g
   class="typst-text"
   transform="scale(1,-1)"
   id="g94"
   style="stroke-width:1">
                <g
   id="g93"
   style="stroke-width:1"><path
   d="M 5.4040003,7.21 5.642,7.4620004 3.5,9.716001 1.358,7.4620004 1.5960001,7.21 3.5,8.652 Z"
   id="path92"
   style="stroke-width:1" />
        </g></g>
        </g>
        <g
   transform="translate(0,9.562)"
   id="g98"
   style="stroke-width:1">
            <g
   class="typst-text"
   transform="scale(1,-1)"
   id="g97"
   style="stroke-width:1">
                <g
   id="g96"
   style="stroke-width:1"><path
   d="m 1.7360001,1.8060001 c 0,0.3359999 0.07,0.7979999 0.21,1.3720001 H 2.632 c 0.91,0 1.61,0.112 2.1140003,0.3219998 C 5.208,3.696 5.5160003,3.976 5.67,4.326 5.768,4.564 5.81,4.788 5.81,4.9700003 5.81,5.7400002 5.0820003,6.188 4.2980003,6.188 3.752,6.188 3.206,6.0480003 2.66,5.768 1.582,5.208 0.644,3.934 0.644,2.394 0.644,0.966 1.47,-0.154 2.8560002,-0.154 3.598,-0.154 4.256,0.028 4.83,0.37800002 5.306,0.67200005 5.656,0.966 5.88,1.26 5.978,1.386 6.02,1.4840001 6.02,1.526 6.02,1.6800001 5.95,1.764 5.796,1.764 5.726,1.764 5.656,1.708 5.572,1.5960001 5.11,0.98 4.5360003,0.588 3.878,0.42000002 3.444,0.308 3.122,0.252 2.884,0.252 2.086,0.252 1.7360001,1.008 1.7360001,1.8060001 Z M 5.25,4.9700003 C 5.25,4.046 4.354,3.584 2.548,3.584 H 2.058 C 2.3240001,4.5080004 2.716,5.124 3.2480001,5.418 3.6680002,5.656 4.018,5.782 4.2980003,5.782 4.802,5.782 5.25,5.474 5.25,4.9700003 Z"
   id="path95"
   style="stroke-width:1" />
        </g></g>
        </g>
        <g
   transform="translate(6.524,13.02)"
   id="g101"
   style="stroke-width:1">
            <g
   class="typst-text"
   transform="scale(1,-1)"
   id="g100"
   style="stroke-width:1">
                <g
   id="g99"
   style="stroke-width:1"><path
   d="M 3.9396,3.2928 C 3.675,3.0282001 3.2732,2.6754 2.7048001,2.2246 2.1364,1.7738 1.7248,1.421 1.47,1.1662 1.2544,0.9506 1.0976,0.78400004 0.98980004,0.6566 0.7252,0.3528 0.5978,0.147 0.5978,0.0588 c 0,-0.1078 0.0686,-0.1568 0.2058,-0.1568 0.0784,0 0.147,0.0392 0.196,0.1176 0.2646,0.3822 0.5488,0.5684 0.8526,0.5684 0.147,0 0.3038001,-0.0784 0.4802,-0.2254 C 2.5774,0.147 2.7244,0.0294 2.7636,0 c 0.1176,-0.0686 0.2548,-0.098 0.4018,-0.098 0.3234,0 0.6272002,0.1078 0.9114,0.3234 0.3038,0.23520002 0.8036,0.76440004 0.8036,1.2054 0,0.1078 -0.0686,0.1666001 -0.196,0.1666001 C 4.5864,1.5974001 4.5178,1.5386 4.4688,1.421 4.3218,1.0192 3.8318,0.735 3.283,0.735 3.0184,0.735 2.1658,0.9408 1.8914,0.931 H 1.764 C 2.0678,1.225 2.45,1.5582 2.9302,1.9404 3.5770001,2.4598 3.9788,2.793 4.1454,2.9596 4.7824,3.5966 5.1058,3.9984 5.1058,4.165 5.1058,4.2728 5.0372,4.3218 4.9,4.3218 4.8216,4.3218 4.7530003,4.2826 4.704,4.2042003 4.459,3.822 4.2238,3.6358001 4.0082,3.6358001 3.871,3.6358001 3.675,3.7534 3.4104002,3.9788 3.1458,4.2042003 2.9106,4.3218 2.695,4.3218 2.4108,4.3218 2.1266,4.1944 1.8228,3.9396 1.519,3.6848001 1.372,3.43 1.372,3.1556 1.372,3.0478 1.4406,2.9988 1.5680001,2.9988 1.6464,2.9988 1.715,3.038 1.764,3.1262 c 0.1764,0.2842002 0.3332,0.3626 0.8134,0.3626 0.2646,0 1.1074001,-0.1861999 1.3622,-0.196 z"
   id="path98"
   style="stroke-width:1" />
        </g></g>
        </g>
    </g>
    </g><g
           transform="translate(68.040124,208.13076)"
           id="g114"
           style="stroke-width:1"><g
   transform="matrix(0.352778,0,0,0.352778,-2.18743,-2.30646)"
   id="g113"
   style="stroke-width:1">
        <g
   transform="translate(0.7,9.674)"
   id="g106"
   style="stroke-width:1">
            <g
   class="typst-text"
   transform="scale(1,-1)"
   id="g105"
   style="stroke-width:1">
                <g
   id="g104"
   style="stroke-width:1"><path
   d="M 5.4040003,7.21 5.642,7.4620004 3.5,9.716001 1.358,7.4620004 1.5960001,7.21 3.5,8.652 Z"
   id="path103"
   style="stroke-width:1" />
        </g></g>
        </g>
        <g
   transform="translate(0,9.562)"
   id="g109"
   style="stroke-width:1">
            <g
   class="typst-text"
   transform="scale(1,-1)"
   id="g108"
   style="stroke-width:1">
                <g
   id="g107"
   style="stroke-width:1"><path
   d="m 1.7360001,1.8060001 c 0,0.3359999 0.07,0.7979999 0.21,1.3720001 H 2.632 c 0.91,0 1.61,0.112 2.1140003,0.3219998 C 5.208,3.696 5.5160003,3.976 5.67,4.326 5.768,4.564 5.81,4.788 5.81,4.9700003 5.81,5.7400002 5.0820003,6.188 4.2980003,6.188 3.752,6.188 3.206,6.0480003 2.66,5.768 1.582,5.208 0.644,3.934 0.644,2.394 0.644,0.966 1.47,-0.154 2.8560002,-0.154 3.598,-0.154 4.256,0.028 4.83,0.37800002 5.306,0.67200005 5.656,0.966 5.88,1.26 5.978,1.386 6.02,1.4840001 6.02,1.526 6.02,1.6800001 5.95,1.764 5.796,1.764 5.726,1.764 5.656,1.708 5.572,1.5960001 5.11,0.98 4.5360003,0.588 3.878,0.42000002 3.444,0.308 3.122,0.252 2.884,0.252 2.086,0.252 1.7360001,1.008 1.7360001,1.8060001 Z M 5.25,4.9700003 C 5.25,4.046 4.354,3.584 2.548,3.584 H 2.058 C 2.3240001,4.5080004 2.716,5.124 3.2480001,5.418 3.6680002,5.656 4.018,5.782 4.2980003,5.782 4.802,5.782 5.25,5.474 5.25,4.9700003 Z"
   id="path106"
   style="stroke-width:1" />
        </g></g>
        </g>
        <g
   transform="translate(6.524,13.02)"
   id="g112"
   style="stroke-width:1">
            <g
   class="typst-text"
   transform="scale(1,-1)"
   id="g111"
   style="stroke-width:1">
                <g
   id="g110"
   style="stroke-width:1"><path
   d="M 4.7138,4.3316 C 4.4394,4.3316 4.1552,4.0572 4.1552,3.7828 4.1552,3.6946 4.2336,3.5574 4.41,3.3712 4.5864,3.185 4.6746,2.9694 4.6746,2.7146 4.6746,2.401 4.5276003,1.9404 4.2238,1.3230001 3.9984,0.8624 3.5084,0.245 2.9302,0.245 c -0.4997999,0 -0.7448,0.2744 -0.7448,0.8232 0,0.3528 0.1764,0.9702 0.5292,1.862 0.0882,0.2352 0.1372,0.4116 0.1372,0.5292 0,0.5096 -0.441,0.8624 -0.9506,0.8624 C 1.4406,4.3218 1.0780001,4.0866 0.7938,3.6162 0.5684,3.234 0.46060002,2.9694 0.46060002,2.8126001 c 0,-0.1078 0.0686,-0.1666 0.20579998,-0.1666 0.1078,0 0.1764,0.0588 0.2058,0.1861999 0.147,0.4802 0.4802001,1.1466 0.9996001,1.1466 C 1.9992,3.9788 2.0678,3.8808 2.0678,3.675 2.0678,3.5378 2.009,3.332 1.9012,3.0478 1.5484,2.1756 1.372,1.5582 1.372,1.2054 c 0,-0.8722 0.6272,-1.3034 1.5288,-1.3034 0.882,0 1.4994,0.8134 1.7934,1.5288 0.3626,0.8722 0.539,1.5778 0.539,2.0972 0,0.4116 -0.1567997,0.8036 -0.5194,0.8036 z"
   id="path109"
   style="stroke-width:1" />
        </g></g>
        </g>
    </g>
    </g><g
           transform="translate(28.448174,181.10424)"
           id="g125"
           style="stroke-width:1"><g
   transform="matrix(0.352778,0,0,0.352778,-2.32054,-2.6591)"
   id="g124"
   style="stroke-width:1">
        <g
   transform="translate(0.7,9.674)"
   id="g117"
   style="stroke-width:1">
            <g
   class="typst-text"
   transform="scale(1,-1)"
   id="g116"
   style="stroke-width:1">
                <g
   id="g115"
   style="stroke-width:1"><path
   d="M 5.4040003,7.21 5.642,7.4620004 3.5,9.716001 1.358,7.4620004 1.5960001,7.21 3.5,8.652 Z"
   id="path114"
   style="stroke-width:1" />
        </g></g>
        </g>
        <g
   transform="translate(0,9.562)"
   id="g120"
   style="stroke-width:1">
            <g
   class="typst-text"
   transform="scale(1,-1)"
   id="g119"
   style="stroke-width:1">
                <g
   id="g118"
   style="stroke-width:1"><path
   d="m 1.7360001,1.8060001 c 0,0.3359999 0.07,0.7979999 0.21,1.3720001 H 2.632 c 0.91,0 1.61,0.112 2.1140003,0.3219998 C 5.208,3.696 5.5160003,3.976 5.67,4.326 5.768,4.564 5.81,4.788 5.81,4.9700003 5.81,5.7400002 5.0820003,6.188 4.2980003,6.188 3.752,6.188 3.206,6.0480003 2.66,5.768 1.582,5.208 0.644,3.934 0.644,2.394 0.644,0.966 1.47,-0.154 2.8560002,-0.154 3.598,-0.154 4.256,0.028 4.83,0.37800002 5.306,0.67200005 5.656,0.966 5.88,1.26 5.978,1.386 6.02,1.4840001 6.02,1.526 6.02,1.6800001 5.95,1.764 5.796,1.764 5.726,1.764 5.656,1.708 5.572,1.5960001 5.11,0.98 4.5360003,0.588 3.878,0.42000002 3.444,0.308 3.122,0.252 2.884,0.252 2.086,0.252 1.7360001,1.008 1.7360001,1.8060001 Z M 5.25,4.9700003 C 5.25,4.046 4.354,3.584 2.548,3.584 H 2.058 C 2.3240001,4.5080004 2.716,5.124 3.2480001,5.418 3.6680002,5.656 4.018,5.782 4.2980003,5.782 4.802,5.782 5.25,5.474 5.25,4.9700003 Z"
   id="path117"
   style="stroke-width:1" />
        </g></g>
        </g>
        <g
   transform="translate(6.524,13.02)"
   id="g123"
   style="stroke-width:1">
            <g
   class="typst-text"
   transform="scale(1,-1)"
   id="g122"
   style="stroke-width:1">
                <g
   id="g121"
   style="stroke-width:1"><path
   d="m 5.9388,3.9298 c 0.0294,0.0588 0.049,0.1078 0.049,0.1372 0,0.1078 -0.0686,0.1568 -0.196,0.1568 -0.0882,0 -0.147,-0.0196 -0.1764,-0.0686 C 5.1646,3.3712 4.7530003,2.499 4.3904,1.5386 4.3218,2.1756 4.067,2.9694 3.8024,3.4496 3.4692001,4.0278 3.0086,4.3218 2.4108,4.3218 1.911,4.3218 1.4602001,4.1356 1.0486,3.7534 0.7938,3.5084 0.3332,2.8812 0.3332,2.5382001 c 0,-0.1078 0.0686,-0.1568001 0.196,-0.1568001 0.098,0 0.1666,0.0686 0.21560003,0.196 C 0.92120004,3.0870001 1.5876,3.4692001 2.2736,3.4692001 3.4202,3.4692001 3.9984,2.6362 3.9984,0.9604 3.9984,0.6468 3.9788,0.4214 3.9298,0.2744 3.5868,-0.8232 3.4202,-1.519 3.4202,-1.8228 c 0,-0.1862 0.0686,-0.2744 0.196,-0.2744 0.0392,0 0.0686,0.0098 0.098,0.0196 0.0882,0.0294 0.1764,0.2057999 0.2744,0.5095999 C 4.1748,-0.9506 4.2924,-0.3528 4.361,0.2352 4.3904,0.5194 4.655,1.2152001 5.145,2.3324 5.3704,2.8616 5.635,3.3908 5.9388,3.9298 Z"
   id="path120"
   style="stroke-width:1" />
        </g></g>
        </g>
    </g>
    </g><g
           transform="translate(66.883407,196.77315)"
           id="g223"
           style="stroke-width:1"><g
   transform="matrix(0.352778,0,0,0.352778,-2.97222,-2.30646)"
   id="g222"
   style="stroke-width:1">
        <g
   transform="translate(0.7,9.674)"
   id="g212"
   style="stroke-width:1">
            <g
   class="typst-text"
   transform="scale(1,-1)"
   id="g211"
   style="stroke-width:1">
                <g
   id="g210"
   style="stroke-width:1"><path
   d="M 5.4040003,7.21 5.642,7.4620004 3.5,9.716001 1.358,7.4620004 1.5960001,7.21 3.5,8.652 Z"
   id="path210"
   style="stroke-width:1" />
        </g></g>
        </g>
        <g
   transform="translate(0,9.562)"
   id="g215"
   style="stroke-width:1">
            <g
   class="typst-text"
   transform="scale(1,-1)"
   id="g214"
   style="stroke-width:1">
                <g
   id="g213"
   style="stroke-width:1"><path
   d="m 1.7360001,1.8060001 c 0,0.3359999 0.07,0.7979999 0.21,1.3720001 H 2.632 c 0.91,0 1.61,0.112 2.1140003,0.3219998 C 5.208,3.696 5.5160003,3.976 5.67,4.326 5.768,4.564 5.81,4.788 5.81,4.9700003 5.81,5.7400002 5.0820003,6.188 4.2980003,6.188 3.752,6.188 3.206,6.0480003 2.66,5.768 1.582,5.208 0.644,3.934 0.644,2.394 0.644,0.966 1.47,-0.154 2.8560002,-0.154 3.598,-0.154 4.256,0.028 4.83,0.37800002 5.306,0.67200005 5.656,0.966 5.88,1.26 5.978,1.386 6.02,1.4840001 6.02,1.526 6.02,1.6800001 5.95,1.764 5.796,1.764 5.726,1.764 5.656,1.708 5.572,1.5960001 5.11,0.98 4.5360003,0.588 3.878,0.42000002 3.444,0.308 3.122,0.252 2.884,0.252 2.086,0.252 1.7360001,1.008 1.7360001,1.8060001 Z M 5.25,4.9700003 C 5.25,4.046 4.354,3.584 2.548,3.584 H 2.058 C 2.3240001,4.5080004 2.716,5.124 3.2480001,5.418 3.6680002,5.656 4.018,5.782 4.2980003,5.782 4.802,5.782 5.25,5.474 5.25,4.9700003 Z"
   id="path212"
   style="stroke-width:1" />
        </g></g>
        </g>
        <g
   transform="translate(6.524,13.02)"
   id="g218"
   style="stroke-width:1">
            <g
   class="typst-text"
   transform="scale(1,-1)"
   id="g217"
   style="stroke-width:1">
                <g
   id="g216"
   style="stroke-width:1"><path
   d="M 5.7134,3.5770001 C 5.7134,4.0768 5.2038,4.3218 4.6746,4.3218 4.2336,4.3218 3.871,4.1062 3.5966,3.675 3.3614001,4.1062 2.9694,4.3218 2.4304001,4.3218 2.0678,4.3218 1.6856,4.165 1.3034,3.8416 0.9016,3.5084 0.6958,3.1654 0.6958,2.8126001 c 0,-0.1078 0.0686,-0.1666 0.196,-0.1666 0.1078,0 0.1764,0.0588 0.2254,0.1861999 C 1.2936,3.3614001 1.7738,3.9788 2.401,3.9788 2.7636,3.9788 2.94,3.7828 2.94,3.381 2.94,3.2536001 2.8714,2.9204001 2.744,2.3814 L 2.4108,1.0682 C 2.3226001,0.6958 1.96,0.245 1.5386,0.245 1.372,0.245 1.225,0.2744 1.1074001,0.343 1.3034,0.4312 1.4798,0.6468 1.4798,0.8722 c 0,0.2352001 -0.1862,0.4018 -0.4214,0.4018 -0.3332,0 -0.588,-0.294 -0.588,-0.6272 0,-0.49 0.51940004,-0.7448 1.0486,-0.7448 0.4508,0 0.8134,0.2156 1.0780001,0.6468 C 2.8322,0.1176 3.2144,-0.098 3.7534,-0.098 c 0.539,0 0.9702,0.2156 1.3034,0.6468 C 5.341,0.931 5.488,1.225 5.488,1.4112 5.488,1.519 5.4292,1.5778 5.3018003,1.5778 5.1940002,1.5778 5.1156,1.5092 5.0764003,1.3818 4.9098,0.8624 4.41,0.245 3.7926002,0.245 3.43,0.245 3.2438,0.441 3.2438,0.833 3.2438,0.98 3.4104002,1.715 3.7436001,3.0184 3.9102,3.6554 4.2042003,3.9788 4.6452003,3.9788 L 4.7334,3.969 C 4.851,3.969 4.9686003,3.9396 5.0764003,3.8906 4.8314,3.7828 4.7138,3.6064 4.7138,3.3516 4.7138,3.1164 4.9,2.9498 5.1352,2.9498 c 0.3332,0 0.5782,0.294 0.5782,0.6272001 z"
   id="path215"
   style="stroke-width:1" />
        </g></g>
        </g>
        <g
   transform="translate(12.8744,13.02)"
   id="g221"
   style="stroke-width:1">
            <g
   class="typst-text"
   transform="scale(1,-1)"
   id="g220"
   style="stroke-width:1">
                <g
   id="g219"
   style="stroke-width:1"><path
   d="m 2.7832,5.3802 c -0.2449999,0 -0.4116,-0.098 -0.4998,-0.3037997 L 0.637,0.9408 h 0.4410001 l 2.1756,3.5966002 C 3.3026001,4.6256 3.332,4.7236 3.332,4.8314 c 0,0.294 -0.2548,0.5488 -0.5488,0.5488 z"
   id="path218"
   style="stroke-width:1" />
        </g></g>
        </g>
    </g>
    </g><g
           transform="translate(17.282214,185.45932)"
           id="g237"
           style="stroke-width:1"><g
   transform="matrix(0.352778,0,0,0.352778,-2.80109,-2.30646)"
   id="g236"
   style="stroke-width:1">
        <g
   transform="translate(0.7,9.674)"
   id="g226"
   style="stroke-width:1">
            <g
   class="typst-text"
   transform="scale(1,-1)"
   id="g225"
   style="stroke-width:1">
                <g
   id="g224"
   style="stroke-width:1"><path
   d="M 5.4040003,7.21 5.642,7.4620004 3.5,9.716001 1.358,7.4620004 1.5960001,7.21 3.5,8.652 Z"
   id="path223"
   style="stroke-width:1" />
        </g></g>
        </g>
        <g
   transform="translate(0,9.562)"
   id="g229"
   style="stroke-width:1">
            <g
   class="typst-text"
   transform="scale(1,-1)"
   id="g228"
   style="stroke-width:1">
                <g
   id="g227"
   style="stroke-width:1"><path
   d="m 1.7360001,1.8060001 c 0,0.3359999 0.07,0.7979999 0.21,1.3720001 H 2.632 c 0.91,0 1.61,0.112 2.1140003,0.3219998 C 5.208,3.696 5.5160003,3.976 5.67,4.326 5.768,4.564 5.81,4.788 5.81,4.9700003 5.81,5.7400002 5.0820003,6.188 4.2980003,6.188 3.752,6.188 3.206,6.0480003 2.66,5.768 1.582,5.208 0.644,3.934 0.644,2.394 0.644,0.966 1.47,-0.154 2.8560002,-0.154 3.598,-0.154 4.256,0.028 4.83,0.37800002 5.306,0.67200005 5.656,0.966 5.88,1.26 5.978,1.386 6.02,1.4840001 6.02,1.526 6.02,1.6800001 5.95,1.764 5.796,1.764 5.726,1.764 5.656,1.708 5.572,1.5960001 5.11,0.98 4.5360003,0.588 3.878,0.42000002 3.444,0.308 3.122,0.252 2.884,0.252 2.086,0.252 1.7360001,1.008 1.7360001,1.8060001 Z M 5.25,4.9700003 C 5.25,4.046 4.354,3.584 2.548,3.584 H 2.058 C 2.3240001,4.5080004 2.716,5.124 3.2480001,5.418 3.6680002,5.656 4.018,5.782 4.2980003,5.782 4.802,5.782 5.25,5.474 5.25,4.9700003 Z"
   id="path226"
   style="stroke-width:1" />
        </g></g>
        </g>
        <g
   transform="translate(6.524,13.02)"
   id="g232"
   style="stroke-width:1">
            <g
   class="typst-text"
   transform="scale(1,-1)"
   id="g231"
   style="stroke-width:1">
                <g
   id="g230"
   style="stroke-width:1"><path
   d="M 3.9396,3.2928 C 3.675,3.0282001 3.2732,2.6754 2.7048001,2.2246 2.1364,1.7738 1.7248,1.421 1.47,1.1662 1.2544,0.9506 1.0976,0.78400004 0.98980004,0.6566 0.7252,0.3528 0.5978,0.147 0.5978,0.0588 c 0,-0.1078 0.0686,-0.1568 0.2058,-0.1568 0.0784,0 0.147,0.0392 0.196,0.1176 0.2646,0.3822 0.5488,0.5684 0.8526,0.5684 0.147,0 0.3038001,-0.0784 0.4802,-0.2254 C 2.5774,0.147 2.7244,0.0294 2.7636,0 c 0.1176,-0.0686 0.2548,-0.098 0.4018,-0.098 0.3234,0 0.6272002,0.1078 0.9114,0.3234 0.3038,0.23520002 0.8036,0.76440004 0.8036,1.2054 0,0.1078 -0.0686,0.1666001 -0.196,0.1666001 C 4.5864,1.5974001 4.5178,1.5386 4.4688,1.421 4.3218,1.0192 3.8318,0.735 3.283,0.735 3.0184,0.735 2.1658,0.9408 1.8914,0.931 H 1.764 C 2.0678,1.225 2.45,1.5582 2.9302,1.9404 3.5770001,2.4598 3.9788,2.793 4.1454,2.9596 4.7824,3.5966 5.1058,3.9984 5.1058,4.165 5.1058,4.2728 5.0372,4.3218 4.9,4.3218 4.8216,4.3218 4.7530003,4.2826 4.704,4.2042003 4.459,3.822 4.2238,3.6358001 4.0082,3.6358001 3.871,3.6358001 3.675,3.7534 3.4104002,3.9788 3.1458,4.2042003 2.9106,4.3218 2.695,4.3218 2.4108,4.3218 2.1266,4.1944 1.8228,3.9396 1.519,3.6848001 1.372,3.43 1.372,3.1556 1.372,3.0478 1.4406,2.9988 1.5680001,2.9988 1.6464,2.9988 1.715,3.038 1.764,3.1262 c 0.1764,0.2842002 0.3332,0.3626 0.8134,0.3626 0.2646,0 1.1074001,-0.1861999 1.3622,-0.196 z"
   id="path229"
   style="stroke-width:1" />
        </g></g>
        </g>
        <g
   transform="translate(11.9042,13.02)"
   id="g235"
   style="stroke-width:1">
            <g
   class="typst-text"
   transform="scale(1,-1)"
   id="g234"
   style="stroke-width:1">
                <g
   id="g233"
   style="stroke-width:1"><path
   d="m 2.7832,5.3802 c -0.2449999,0 -0.4116,-0.098 -0.4998,-0.3037997 L 0.637,0.9408 h 0.4410001 l 2.1756,3.5966002 C 3.3026001,4.6256 3.332,4.7236 3.332,4.8314 c 0,0.294 -0.2548,0.5488 -0.5488,0.5488 z"
   id="path232"
   style="stroke-width:1" />
        </g></g>
        </g>
    </g>
    </g></g><g
         id="g257"><path
           style="fill:none;stroke:#000000;stroke-width:0.670999;stroke-linecap:round;stroke-dasharray:none;marker-start:url(#marker30)"
           id="path245"
           d="m 45.041841,161.22019 a 21.950113,21.950113 0 0 1 0.06144,1.63661" /><g
           transform="translate(47.753433,165.19011)"
           id="g250"><g
   transform="matrix(0.352778,0,0,0.352778,-1.38536,-2.8127)"
   id="g249">
        <g
   transform="translate(0,9.562)"
   id="g248">
            <g
   class="typst-text"
   transform="scale(1,-1)"
   id="g247">
                <g
   id="g246"><path
   d="M 7.3360004,5.2920003 C 7.518,5.642 7.602,5.8240004 7.602,5.8380003 7.602,5.964 7.532,6.0340004 7.3780003,6.0340004 7.28,6.0340004 7.21,5.992 7.168,5.908 6.678,4.998 6.104,3.71 5.432,2.0440001 5.3760004,2.9680002 5.1940002,3.8360002 4.886,4.6340003 4.48,5.67 3.8500001,6.188 2.996,6.188 2.114,6.188 1.3440001,5.6000004 0.952,5.0540004 0.49,4.396 0.252,3.9060001 0.252,3.598 c 0,-0.1259999 0.11200002,-0.1959998 0.35,-0.1959998 l 0.07,0.098 C 0.91,4.228 1.316,4.69 1.8900001,4.886 2.282,5.012 2.5900002,5.0820003 2.8140001,5.0820003 4.27,5.0820003 4.998,3.934 4.998,1.6240001 4.998,1.0780001 4.9420004,0.63 4.83,0.28 4.354,-1.274 4.116,-2.2680001 4.116,-2.7020001 4.116,-2.9120002 4.2000003,-3.01 4.354,-3.01 c 0.1680003,0 0.336,0.294 0.4900003,0.868 C 5.0820003,-1.246 5.25,-0.448 5.348,0.252 5.39,0.462 5.418,0.644 5.46,0.77000004 5.964,2.338 6.5940003,3.8500001 7.3360004,5.2920003 Z"
   id="path246" />
        </g></g>
        </g>
    </g>
    </g></g><g
         id="g256"><path
           style="fill:none;stroke:#000000;stroke-width:0.670999;stroke-linecap:round;stroke-dasharray:none;marker-start:url(#marker26)"
           id="circle245"
           d="m 38.504858,155.58414 a 16.989176,16.989176 0 0 1 1.63729,7.19599" /><g
           transform="translate(36.023061,158.81026)"
           id="g255"><g
   transform="matrix(0.352778,0,0,0.352778,-1.22731,-1.65947)"
   id="g254">
        <g
   transform="translate(0,9.562)"
   id="g253">
            <g
   class="typst-text"
   transform="scale(1,-1)"
   id="g252">
                <g
   id="g251"><path
   d="m 2.296,-0.154 c 0.63,0 1.288,0.378 1.932,1.134 1.12,1.302 2.1420004,3.71 2.1420004,5.992 0,0.574 -0.098,1.176001 -0.2940004,1.778 C 5.8240004,9.492001 5.348,9.87 4.662,9.87 4.032,9.87 3.4020002,9.492001 2.7440002,8.736 1.6240001,7.4480004 0.588,5.04 0.588,2.7440002 0.588,1.316 1.0500001,-0.154 2.296,-0.154 Z M 4.6480002,9.450001 C 5.11,9.450001 5.348,8.918 5.348,7.84 5.348,7.2380004 5.208,6.328 4.928,5.138 H 2.17 C 2.52,6.44 2.8560002,7.406 3.206,8.036 3.7240002,8.974 4.214,9.450001 4.6480002,9.450001 Z M 2.03,4.578 H 4.774 C 4.5080004,3.444 4.1860003,2.5340002 3.8360002,1.848 3.2900002,0.79800004 2.786,0.266 2.296,0.266 1.8340001,0.266 1.61,0.81200004 1.61,1.8900001 1.61,2.5900002 1.75,3.486 2.03,4.578 Z"
   id="path250" />
        </g></g>
        </g>
    </g>
    </g></g></g></g></svg>
